<?xml version="1.0" encoding="UTF-8" standalone="no"?>
<svg
   width="219"
   height="267"
   viewBox="0 0 219 267"
   fill="none"
   version="1.1"
   id="svg6"
   sodipodi:docname="4.svg"
   inkscape:version="1.2.2 (732a01da63, 2022-12-09)"
   xmlns:inkscape="http://www.inkscape.org/namespaces/inkscape"
   xmlns:sodipodi="http://sodipodi.sourceforge.net/DTD/sodipodi-0.dtd"
   xmlns="http://www.w3.org/2000/svg"
   xmlns:svg="http://www.w3.org/2000/svg">
  <defs
     id="defs10" />
  <sodipodi:namedview
     id="namedview8"
     pagecolor="#ffffff"
     bordercolor="#111111"
     borderopacity="1"
     inkscape:showpageshadow="0"
     inkscape:pageopacity="0"
     inkscape:pagecheckerboard="1"
     inkscape:deskcolor="#d1d1d1"
     showgrid="false"
     inkscape:zoom="1.9662921"
     inkscape:cx="67.131429"
     inkscape:cy="52.382857"
     inkscape:window-width="1366"
     inkscape:window-height="705"
     inkscape:window-x="-8"
     inkscape:window-y="-8"
     inkscape:window-maximized="1"
     inkscape:current-layer="svg6" />
  <path
     d="M155.369 266.784C170.258 266.784 181.2 257.635 181.2 240.414V215.479H195.91C210.082 215.479 218.154 206.689 218.154 193.953C218.154 181.216 210.261 172.247 195.91 172.247H181.2V39.3207C181.2 15.1034 163.979 0.214183 136.533 0.214183C114.648 0.214183 101.552 9.18356 83.6136 36.6299C55.4497 78.4272 29.6179 117.892 11.8586 149.823C3.78611 163.995 0.557134 174.041 0.557134 185.163C0.557134 203.281 13.6524 215.479 33.2057 215.479H129.716V240.414C129.716 257.635 140.479 266.784 155.369 266.784ZM130.793 173.682H47.9155V172.247C68.9038 133.14 92.7624 96.7247 129.716 43.4466H130.793V173.682Z"
     fill="white"
     id="path2" />
  <path
     d="m 177.89327,212.37269 v -5.04917 h -5.00648 v 5.04917 z m 0,-41.59405 h -5.00648 v 5.04917 h 5.00648 z M 84.798,40.299727 l 4.15219,2.821683 0.01966,-0.02944 0.01918,-0.02964 z m -68.452684,108.904503 4.35052,2.49956 0.0126,-0.0222 0.0124,-0.0231 z m 112.433354,63.16846 h 5.00743 v -5.04917 h -5.00743 z m 1.02744,-40.21342 v 5.04916 h 5.00647 v -5.04916 z m -79.063308,0 h -5.006858 v 5.04916 h 5.006858 z m 0,-1.38063 -4.411671,-2.38797 -0.595187,1.11894 v 1.26903 z M 128.77867,46.858159 v -5.049552 h -2.62058 l -1.49298,2.171681 z m 1.02744,0 h 5.00647 v -5.049552 h -5.00647 z M 153.25107,266.784 c 8.11739,0 15.62234,-2.52939 21.12584,-7.89028 5.53688,-5.39361 8.52379,-13.14247 8.52379,-22.53075 h -10.01391 c 0,7.1812 -2.23231,12.11684 -5.46629,15.26679 -3.26737,3.18267 -8.08401,5.05494 -14.16943,5.05494 z m 29.64963,-30.42103 v -23.99028 h -10.01391 v 23.99028 z m -5.00743,-18.94015 h 14.03301 v -10.0993 h -14.03301 z m 14.03301,0 c 7.81213,0 14.48807,-2.46686 19.22076,-7.2399 4.72409,-4.76438 7.00696,-11.3183 7.00696,-18.52067 h -10.01391 c 0,5.05109 -1.56738,8.8524 -4.07443,11.37987 -2.49752,2.51977 -6.43172,4.2814 -12.13938,4.2814 z M 218.154,191.66225 c 0,-7.1687 -2.21895,-13.75916 -6.91157,-18.57551 -4.71265,-4.83845 -11.40385,-7.35727 -19.31615,-7.35727 v 10.09834 c 5.77825,0 9.69815,1.7953 12.17276,4.33623 2.49465,2.56115 4.04105,6.41249 4.04105,11.49821 z m -26.22772,-25.93278 h -14.03301 v 10.09834 h 14.03301 z m -9.02558,5.04917 V 42.888579 H 172.88679 V 170.77864 Z m 0,-127.890061 c 0,-12.923674 -4.60199,-23.786886 -13.20306,-31.354796 -8.51997,-7.4971654 -20.45614,-11.3196 -34.4157,-11.3196 v 10.099045 c 12.22332,0 21.59329,3.340109 27.83326,8.830413 6.15888,5.41958 9.77159,13.368746 9.77159,23.744938 z M 135.28194,0.214183 c -11.22451,0 -20.61356,2.3495173 -29.49032,8.5040934 C 97.107273,14.739667 89.275973,24.160481 80.606985,37.537117 l 8.382031,5.525219 c 8.444231,-13.029889 15.415514,-21.127029 22.475914,-26.022065 6.86768,-4.761784 14.16275,-6.727043 23.81701,-6.727043 z M 80.645812,37.478043 C 53.782653,77.685014 29.02807,115.81796 11.969677,146.74988 l 8.751153,4.90869 C 37.546521,121.14902 62.077967,83.341851 88.95019,43.12141 Z M 11.994747,146.70562 C 4.054541,160.76401 0.557134,171.3078 0.557134,183.20528 h 10.013658 c 0,-9.50374 2.663344,-18.29072 10.125044,-31.50149 z M 0.557134,183.20528 c 0,9.98962 3.6116354,18.66595 10.176263,24.81962 6.532699,6.12288 15.608749,9.39792 25.976581,9.39792 v -10.0993 c -8.285584,0 -14.782556,-2.59385 -19.159502,-6.6963 -4.344997,-4.07262 -6.979684,-9.98 -6.979684,-17.42194 z m 36.152844,34.21754 h 92.068692 v -10.0993 H 36.709978 Z m 87.062212,-5.05013 v 23.99028 h 10.01391 v -23.99028 z m 0,23.99028 c 0,9.36328 2.92872,17.11116 8.41982,22.51343 5.46534,5.37628 12.93784,7.9076 21.05906,7.9076 v -10.0993 c -6.08352,0 -10.84673,-1.87035 -14.06641,-5.03762 -3.19296,-3.1413 -5.39856,-8.07886 -5.39856,-15.28411 z m 6.03392,-69.25287 H 50.742802 v 10.09833 h 79.063308 z m -74.056546,5.04917 v -1.38063 h -10.01362 v 1.38063 z m -0.595187,1.00733 C 75.035849,135.80681 97.661247,100.96449 132.89318,49.73603 l -8.22807,-5.755742 C 89.390259,95.270988 66.494504,130.50076 46.331131,168.39067 Z M 128.77867,51.90771 h 1.02744 V 41.808607 h -1.02744 z m -3.98,-5.049551 V 172.15927 h 10.01391 V 46.858159 Z"
     fill="#000000"
     id="path4"
     style="stroke-width:0.958037" />
</svg>
