<svg width="92" height="44" viewBox="0 0 92 44" fill="none" xmlns="http://www.w3.org/2000/svg">
<g clip-path="url(#clip0_101_23)">
<path d="M41.2142 18.9649L42.9174 16.5275C43.0909 16.2769 43.2129 15.9944 43.2763 15.6963C43.3397 15.3982 43.3433 15.0905 43.2868 14.791C43.2304 14.4915 43.115 14.2062 42.9474 13.9517C42.7798 13.6971 42.5634 13.4784 42.3106 13.3082L23.2723 0.60684C22.8956 0.355389 22.4529 0.221191 22 0.221191C21.5471 0.221191 21.1043 0.355389 20.7277 0.60684L1.68942 13.3082C1.43666 13.4783 1.22021 13.697 1.05264 13.9514C0.885071 14.2059 0.76971 14.4911 0.713256 14.7905C0.656801 15.0899 0.660378 15.3976 0.723778 15.6956C0.787178 15.9936 0.909139 16.2761 1.08258 16.5266L2.78575 18.9658C3.13119 19.4543 3.65298 19.7893 4.24088 19.9002C4.82878 20.011 5.43675 19.889 5.93633 19.5598L21.7461 9.01817C21.8213 8.96812 21.9096 8.94141 22 8.94141C22.0904 8.94141 22.1787 8.96812 22.2539 9.01817L38.0637 19.5598C38.5634 19.8886 39.1714 20.0104 39.7592 19.8994C40.3471 19.7884 40.8688 19.4533 41.2142 18.9649Z" fill="black"/>
<path d="M41.7083 38.5H2.29167C1.02601 38.5 0 39.526 0 40.7917V41.7083C0 42.974 1.02601 44 2.29167 44H41.7083C42.974 44 44 42.974 44 41.7083V40.7917C44 39.526 42.974 38.5 41.7083 38.5Z" fill="black"/>
<path d="M24.2733 12.2256C24.3361 12.1837 24.3876 12.127 24.4232 12.0605C24.4588 11.994 24.4774 11.9197 24.4774 11.8443C24.4774 11.7688 24.4588 11.6945 24.4232 11.628C24.3876 11.5615 24.3361 11.5048 24.2733 11.4629L22.2567 10.1163C22.1814 10.0663 22.0931 10.0396 22.0028 10.0396C21.9124 10.0396 21.8241 10.0663 21.7488 10.1163L6.44417 20.3216C6.24135 20.4541 6.02387 20.5627 5.79608 20.6452C5.70899 20.6781 5.63401 20.7369 5.58112 20.8135C5.52823 20.8901 5.49993 20.9811 5.5 21.0742V37.125C5.5 37.2466 5.54829 37.3631 5.63424 37.4491C5.7202 37.5351 5.83678 37.5833 5.95833 37.5833H15.125C15.2466 37.5833 15.3631 37.5351 15.4491 37.4491C15.535 37.3631 15.5833 37.2466 15.5833 37.125V19.7386C15.5826 19.2102 15.7128 18.6898 15.9624 18.224C16.2119 17.7581 16.573 17.3614 17.0133 17.0693L24.2733 12.2256ZM14.2083 31.625C14.2083 31.8681 14.1118 32.1013 13.9398 32.2732C13.7679 32.4451 13.5348 32.5417 13.2917 32.5417H10.5417C10.2986 32.5417 10.0654 32.4451 9.89349 32.2732C9.72158 32.1013 9.625 31.8681 9.625 31.625V27.0417C9.625 26.7986 9.72158 26.5654 9.89349 26.3935C10.0654 26.2216 10.2986 26.125 10.5417 26.125H13.2917C13.5348 26.125 13.7679 26.2216 13.9398 26.3935C14.1118 26.5654 14.2083 26.7986 14.2083 27.0417V31.625Z" fill="black"/>
<path d="M38.0417 37.5834C38.1632 37.5834 38.2798 37.5351 38.3658 37.4491C38.4517 37.3632 38.5 37.2466 38.5 37.125V21.0742C38.5001 20.9811 38.4718 20.8901 38.4189 20.8135C38.366 20.7369 38.291 20.6782 38.2039 20.6452C37.9763 20.5626 37.7589 20.4543 37.5558 20.3225L25.9252 12.5648C25.8499 12.5147 25.7616 12.488 25.6713 12.488C25.5809 12.488 25.4926 12.5147 25.4173 12.5648L17.5203 17.8319C17.2061 18.0409 16.9485 18.3243 16.7704 18.657C16.5924 18.9897 16.4995 19.3613 16.5 19.7386V37.125C16.5 37.2466 16.5483 37.3632 16.6342 37.4491C16.7202 37.5351 16.8368 37.5834 16.9583 37.5834H24.2917V31.1667C24.2917 30.3158 24.6297 29.4997 25.2314 28.8981C25.833 28.2964 26.6491 27.9584 27.5 27.9584C28.3509 27.9584 29.167 28.2964 29.7686 28.8981C30.3703 29.4997 30.7083 30.3158 30.7083 31.1667V37.5834H38.0417ZM27.5 24.2917C26.8655 24.2917 26.2452 24.1035 25.7175 23.751C25.1899 23.3984 24.7787 22.8974 24.5359 22.3111C24.2931 21.7249 24.2295 21.0798 24.3533 20.4574C24.4771 19.8351 24.7827 19.2634 25.2314 18.8147C25.6801 18.366 26.2517 18.0605 26.8741 17.9367C27.4964 17.8129 28.1415 17.8764 28.7278 18.1192C29.314 18.3621 29.8151 18.7733 30.1676 19.3009C30.5202 19.8285 30.7083 20.4488 30.7083 21.0834C30.7083 21.9343 30.3703 22.7503 29.7686 23.352C29.167 23.9537 28.3509 24.2917 27.5 24.2917Z" fill="black"/>
</g>
<path d="M72.48 26.92C72.8 26.72 73.04 26.44 73.2 26.12C73.8 27.84 74.64 29.96 75.08 31C76.24 31.04 78.88 30.76 81.04 30.4C81.96 30.24 82.84 30.88 82.96 31.8C83.12 32.72 82.48 33.6 81.56 33.72C81.48 33.72 79.72 34 77.88 34.2C76.88 34.32 76.04 34.36 75.32 34.36C73.76 34.36 72.84 34.04 72.36 33.16C72 32.52 71.16 30.32 70.4 28.28C70.88 27.96 71.4 27.6 72 27.2C72.24 27.08 72.4 26.96 72.48 26.92Z" fill="black"/>
<path d="M53.04 21.4C53.24 20.72 53.92 20.28 54.64 20.48C54.96 20.56 57.32 21.2 58.76 21.6C58.8 21.44 58.88 21.28 58.92 21.16C59.48 19.52 60.32 17.04 62.48 16.2C62.96 16 64.08 15.52 64.8 15.2C67.84 13.88 73.12 15.32 73.8 15.56C74.16 15.72 74.96 16 77.28 20.56C77.6 21.2 77.32 22 76.68 22.32C76.48 22.4 76.28 22.48 76.08 22.48C75.6 22.48 75.16 22.2 74.92 21.76C74.16 20.28 73.12 18.48 72.72 18C72.2 17.84 70.96 17.56 69.6 17.4C71.08 19.44 72.4 22.68 72.64 23.84C72.96 25.52 72.24 26.08 72 26.24C71.44 26.64 66.32 30.04 65.56 30.84C65.76 32 66.8 35.4 67.72 38.2C68 39.08 67.52 40.04 66.64 40.32C66.48 40.36 66.28 40.4 66.12 40.4C65.4 40.4 64.76 39.96 64.52 39.24C63.64 36.52 62.12 31.8 62.16 30.44C62.2 29.12 63.4 27.96 66.04 26.16C65.2 24.08 63.8 21.08 62.48 19.52C62 20.24 61.64 21.24 61.4 22C61 23.12 60.76 23.92 60 24.28C59.8 24.4 59.56 24.44 59.36 24.44C59.2 24.44 59 24.4 58.84 24.36C58.28 24.16 55.64 23.44 54 23C53.28 22.8 52.88 22.12 53.04 21.4Z" fill="black"/>
<path d="M59.0733 12.632C58.2905 10.8044 59.1375 8.68835 60.9651 7.90559C62.7927 7.12282 64.9088 7.96981 65.6915 9.79739C66.4743 11.625 65.6273 13.7411 63.7997 14.5238C61.9721 15.3066 59.856 14.4596 59.0733 12.632Z" fill="black"/>
<path d="M87.68 17.8H79.4C78.84 17.8 78.4 17.36 78.4 16.8C78.4 16.24 78.84 15.8 79.4 15.8H87.68C88.24 15.8 88.68 16.24 88.68 16.8C88.68 17.36 88.2 17.8 87.68 17.8Z" fill="black"/>
<path d="M88.84 22H80.56C80 22 79.56 21.56 79.56 21C79.56 20.44 80 20 80.56 20H88.84C89.4 20 89.84 20.44 89.84 21C89.84 21.56 89.4 22 88.84 22Z" fill="black"/>
<path d="M80.76 25.2C80.76 24.64 81.2 24.2 81.76 24.2H90C90.56 24.2 91 24.64 91 25.2C91 25.76 90.56 26.2 90 26.2H81.72C81.2 26.2 80.76 25.76 80.76 25.2Z" fill="black"/>
<defs>
<clipPath id="clip0_101_23">
<rect width="44" height="44" fill="white"/>
</clipPath>
</defs>
</svg>
