<?xml version="1.0" encoding="UTF-8" standalone="no"?>
<svg
   width="841"
   height="111"
   viewBox="0 0 841 111"
   fill="none"
   version="1.1"
   id="svg6"
   sodipodi:docname="NOT FOUND.svg"
   inkscape:version="1.2.2 (732a01da63, 2022-12-09)"
   xmlns:inkscape="http://www.inkscape.org/namespaces/inkscape"
   xmlns:sodipodi="http://sodipodi.sourceforge.net/DTD/sodipodi-0.dtd"
   xmlns="http://www.w3.org/2000/svg"
   xmlns:svg="http://www.w3.org/2000/svg">
  <defs
     id="defs10" />
  <sodipodi:namedview
     id="namedview8"
     pagecolor="#ffffff"
     bordercolor="#111111"
     borderopacity="1"
     inkscape:showpageshadow="0"
     inkscape:pageopacity="0"
     inkscape:pagecheckerboard="1"
     inkscape:deskcolor="#d1d1d1"
     showgrid="false"
     inkscape:zoom="1.4387634"
     inkscape:cx="194.61157"
     inkscape:cy="55.603306"
     inkscape:window-width="1366"
     inkscape:window-height="705"
     inkscape:window-x="-8"
     inkscape:window-y="-8"
     inkscape:window-maximized="1"
     inkscape:current-layer="svg6" />
  <path
     d="M11.2309 110.162C17.8734 110.162 21.8588 106.103 21.8588 99.0178V39.0142H22.5231L68.7251 103.741C72.1202 108.465 75.0724 110.162 79.8697 110.162C86.8812 110.162 90.7929 106.251 90.7929 99.3131V12.0015C90.7929 4.84241 86.8812 0.783127 80.1649 0.783127C73.4487 0.783127 69.4632 4.84241 69.4632 12.0015V71.6361H68.8728L22.8183 7.27798C19.4233 2.62826 16.3235 0.783127 11.7475 0.783127C4.66223 0.783127 0.52914 4.84241 0.52914 11.9277V99.0178C0.52914 106.103 4.51462 110.162 11.2309 110.162ZM156.627 110.531C188.142 110.531 207.996 89.4232 207.996 55.5466C207.996 21.5962 188.142 0.414101 156.627 0.414101C125.039 0.414101 105.259 21.5962 105.259 55.5466C105.259 89.4232 125.039 110.531 156.627 110.531ZM156.627 91.9325C139.135 91.9325 127.991 77.8358 127.991 55.5466C127.991 33.1836 139.209 19.013 156.627 19.013C174.045 19.013 185.19 33.1836 185.19 55.5466C185.19 77.8358 174.045 91.9325 156.627 91.9325ZM253.091 110.162C260.102 110.162 264.235 105.882 264.235 98.575V20.7105H286.303C292.281 20.7105 296.34 17.2417 296.34 11.4849C296.34 5.72808 292.355 2.25923 286.303 2.25923H219.952C213.826 2.25923 209.841 5.72808 209.841 11.4849C209.841 17.2417 213.9 20.7105 219.952 20.7105H241.946V98.575C241.946 105.882 246.079 110.162 253.091 110.162ZM348.521 110.162C355.532 110.162 359.665 105.882 359.665 98.575V66.8388H394.723C400.553 66.8388 404.244 63.5175 404.244 57.9822C404.244 52.5206 400.48 49.1993 394.723 49.1993H359.665V20.7105H398.339C404.391 20.7105 408.45 17.2417 408.45 11.4849C408.45 5.72808 404.465 2.25923 398.339 2.25923H348.521C341.509 2.25923 337.376 6.53993 337.376 13.8466V98.575C337.376 105.882 341.509 110.162 348.521 110.162ZM468.38 110.531C499.895 110.531 519.749 89.4232 519.749 55.5466C519.749 21.5962 499.895 0.414101 468.38 0.414101C436.792 0.414101 417.012 21.5962 417.012 55.5466C417.012 89.4232 436.792 110.531 468.38 110.531ZM468.38 91.9325C450.888 91.9325 439.744 77.8358 439.744 55.5466C439.744 33.1836 450.962 19.013 468.38 19.013C485.798 19.013 496.943 33.1836 496.943 55.5466C496.943 77.8358 485.798 91.9325 468.38 91.9325ZM578.793 110.531C606.027 110.531 623.371 94.5895 623.371 71.1195V12.4443C623.371 5.06383 619.238 0.783127 612.227 0.783127C605.215 0.783127 601.082 5.06383 601.082 12.4443V68.9053C601.082 82.5593 593.037 91.4897 578.793 91.4897C564.475 91.4897 556.43 82.5593 556.43 68.9053V12.4443C556.43 5.06383 552.297 0.783127 545.285 0.783127C538.274 0.783127 534.141 5.06383 534.141 12.4443V71.1195C534.141 94.5895 551.485 110.531 578.793 110.531ZM651.86 110.162C658.502 110.162 662.488 106.103 662.488 99.0178V39.0142H663.152L709.354 103.741C712.749 108.465 715.701 110.162 720.499 110.162C727.51 110.162 731.422 106.251 731.422 99.3131V12.0015C731.422 4.84241 727.51 0.783127 720.794 0.783127C714.078 0.783127 710.092 4.84241 710.092 12.0015V71.6361H709.502L663.447 7.27798C660.052 2.62826 656.953 0.783127 652.377 0.783127C645.291 0.783127 641.158 4.84241 641.158 11.9277V99.0178C641.158 106.103 645.144 110.162 651.86 110.162ZM760.354 108.76H789.876C821.833 108.76 840.654 88.9065 840.654 55.1038C840.654 21.301 821.833 2.25923 789.876 2.25923H760.354C753.342 2.25923 749.209 6.53993 749.209 13.8466V97.0989C749.209 104.479 753.342 108.76 760.354 108.76ZM771.498 90.3088V20.6367H787.219C806.851 20.6367 817.922 32.8884 817.922 55.1776C817.922 78.2048 807.146 90.3088 787.219 90.3088H771.498Z"
     fill="white"
     id="path2" />
  <path
     d="m 26.779206,40.446326 v -4.791618 h -5.183537 v 4.791618 z m 0.656103,0 4.218989,-2.78382 -1.550331,-2.007798 h -2.668658 z m 45.631883,59.093458 -4.218988,2.784546 0.005,0.007 0.005,0.007 z m 0.728992,-29.310726 v 4.791617 h 5.183637 v -4.791617 z m -0.583212,0 -4.215434,2.788476 1.550725,2.003141 h 2.664709 z M 27.726866,11.47219 31.9423,8.6837599 31.92788,8.6651263 31.913262,8.6466204 Z m -11.444415,98.72193 c 4.34936,0 8.450718,-1.25259 11.445799,-4.13301 2.969894,-2.85576 4.234593,-6.719442 4.234593,-10.833361 H 21.595669 c 0,2.35463 -0.703412,3.578921 -1.341836,4.192436 -0.613139,0.589775 -1.760208,1.190515 -3.971382,1.190515 z M 31.962843,95.227749 V 40.446326 H 21.595669 V 95.227749 Z M 26.779206,45.237943 h 0.656103 V 35.654708 H 26.779206 Z M 23.216222,43.230146 68.848204,102.32433 77.28628,96.756143 31.654298,37.662506 Z M 68.85808,102.33712 c 1.892555,2.43397 3.971284,4.50092 6.606361,5.90325 2.721103,1.44887 5.586405,1.95375 8.609831,1.95375 v -9.58342 c -1.714678,0 -2.676362,-0.27024 -3.435873,-0.674683 -0.845734,-0.450095 -1.901443,-1.313766 -3.361995,-3.192654 z m 15.216192,7.857 c 4.405558,0 8.57862,-1.15035 11.647281,-3.97233 3.072315,-2.82563 4.324767,-6.672871 4.324767,-10.724529 H 89.679047 c 0,2.281411 -0.679214,3.387926 -1.269934,3.931142 -0.594176,0.546872 -1.815419,1.182297 -4.334841,1.182297 z M 100.04632,95.497261 V 15.784611 H 89.679047 v 79.71265 z m 0,-79.71265 c 0,-4.112206 -1.22539,-7.9961526 -4.189556,-10.8752959 C 92.858523,1.9971317 88.738992,0.75101337 84.365829,0.75101337 V 10.334195 c 2.260359,0 3.389256,0.606876 3.981062,1.181699 0.625782,0.607864 1.332156,1.844925 1.332156,4.268717 z M 84.365829,0.75101337 c -4.37089,0 -8.496644,1.24419203 -11.509205,4.14082903 -2.986587,2.8716828 -4.244076,6.7573546 -4.244076,10.8927686 h 10.367273 c 0,-2.400584 0.710622,-3.635921 1.350527,-4.251252 0.614028,-0.59036 1.773048,-1.199164 4.035481,-1.199164 z M 68.612548,15.784611 V 70.229058 H 78.979821 V 15.784611 Z m 5.183636,49.652828 h -0.583212 v 9.583236 h 0.583212 z M 77.428503,67.440672 31.9423,8.6837599 23.511434,14.260594 68.997538,73.017534 Z M 31.913262,8.6466204 C 30.010633,6.2378745 27.914028,4.1937952 25.326358,2.7860177 22.649206,1.3295517 19.812349,0.75101337 16.792677,0.75101337 V 10.334195 c 1.499861,0 2.453545,0.263729 3.275278,0.710791 0.911216,0.495759 2.022038,1.416478 3.472515,3.252766 z M 16.792677,0.75101337 c -4.475801,0 -8.7005279,1.20037863 -11.8117656,4.04867353 C 1.862284,7.6547452 0.52914,11.555024 0.52914,15.717234 h 10.367214 c 0,-2.306412 0.707895,-3.493452 1.379781,-4.108563 0.679273,-0.62186 1.994531,-1.274476 4.516542,-1.274476 z M 0.52914,15.717234 V 95.227749 H 10.896354 V 15.717234 Z m 0,79.510515 c 0,4.113919 1.2651139,7.983071 4.2527736,10.842491 3.010283,2.88041 7.1301994,4.12388 11.5005374,4.12388 v -9.58342 c -2.263075,0 -3.428011,-0.60896 -4.044222,-1.198733 -0.638838,-0.611683 -1.341875,-1.829588 -1.341875,-4.184218 z M 159.88442,110.531 c 16.76355,0 30.90191,-5.22035 40.82394,-15.019049 9.88648,-9.763452 15.09442,-23.583039 15.09442,-39.972083 H 205.4353 c 0,14.539189 -4.59656,25.819267 -12.29537,33.423463 -7.66425,7.569144 -18.89296,11.984249 -33.25551,11.984249 z m 55.91836,-54.991132 c 0,-16.419902 -5.20596,-30.270987 -15.08948,-40.059733 C 190.79325,5.6545979 176.6539,0.414101 159.88442,0.414101 v 9.5831815 c 14.35663,0 25.58435,4.4288325 33.24958,12.0214345 7.70375,7.629487 12.3013,18.945352 12.3013,33.521151 z M 159.88442,0.414101 c -16.80307,0 -30.94538,5.2389923 -40.85852,15.06786 -9.87464,9.790846 -15.05985,23.642661 -15.05985,40.057907 h 10.36747 c 0,-14.580455 4.58274,-25.895682 12.27563,-33.522977 7.65436,-7.589316 18.88012,-12.0196085 33.27527,-12.0196085 z m -55.91837,55.125767 c 0,16.384387 5.18719,30.204706 15.06577,39.97026 9.91413,9.802342 24.05545,15.020872 40.8526,15.020872 v -9.58342 c -14.40108,0 -25.62781,-4.416938 -33.28021,-11.982514 -7.68993,-7.602006 -12.27069,-18.881353 -12.27069,-33.425198 z m 55.91837,28.427614 c -7.10425,0 -12.65391,-2.583697 -16.54825,-7.152734 -3.99608,-4.687631 -6.55116,-11.843926 -6.55116,-21.27488 h -10.36747 c 0,10.91836 2.94915,20.37159 8.77537,27.206247 5.92794,6.95325 14.52058,10.804512 24.69151,10.804512 z M 136.78501,55.539868 c 0,-9.460898 2.57088,-16.655173 6.58177,-21.372202 3.91213,-4.600625 9.46475,-7.190166 16.51764,-7.190166 v -9.583236 c -10.15019,0 -18.73889,3.879106 -24.66781,10.851256 -5.83016,6.855929 -8.79907,16.338557 -8.79907,27.294348 z M 159.88442,26.9775 c 7.0509,0 12.5818,2.587532 16.47515,7.18341 3.9951,4.715477 6.55116,11.911121 6.55116,21.378958 h 10.36747 c 0,-10.948853 -2.94718,-20.430203 -8.75659,-27.2875 -5.91017,-6.976989 -14.48504,-10.858104 -24.63719,-10.858104 z m 23.02631,28.562368 c 0,9.430771 -2.5541,16.589166 -6.54424,21.278258 -3.88941,4.570863 -9.42129,7.149356 -16.48207,7.149356 v 9.583145 c 10.14228,0 18.71615,-3.856465 24.63027,-10.80789 5.81436,-6.833196 8.76351,-16.284327 8.76351,-27.202869 z m 83.25384,-31.804224 v -4.791527 h -5.18324 v 4.791527 z m -22.01397,0 h 5.18324 v -4.791527 h -5.18324 z m 11.00748,86.458476 c 4.5304,0 8.75759,-1.30281 11.83415,-4.25626 3.05088,-2.92971 4.35558,-6.893815 4.35558,-11.114464 h -10.36648 c 0,2.449495 -0.7368,3.775116 -1.45779,4.468065 -0.69531,0.667378 -1.97236,1.319239 -4.36546,1.319239 z M 271.34781,94.823396 V 23.735644 h -10.36648 v 71.087752 z m -5.18324,-66.296134 h 21.79569 v -9.583145 h -21.79569 z m 21.79569,0 c 3.93088,0 7.74424,-1.061325 10.64006,-3.471376 2.95804,-2.463095 4.45731,-5.923516 4.45731,-9.742914 h -10.36747 c 0,1.436371 -0.50568,2.187287 -1.02816,2.621585 -0.58468,0.487343 -1.7284,1.00956 -3.70174,1.00956 z m 15.09737,-13.21429 c 0,-3.792778 -1.46075,-7.2581371 -4.42077,-9.7345439 -2.8968,-2.4247949 -6.72201,-3.4797835 -10.6766,-3.4797835 v 9.5831814 c 2.02272,0 3.15458,0.52848 3.71952,1.001105 0.50272,0.421006 1.01038,1.167011 1.01038,2.630041 z M 287.96026,2.0986446 h -65.53225 v 9.5831814 h 65.53225 z m -65.53225,0 c -3.97632,0 -7.81931,1.047338 -10.73093,3.4714007 -2.97682,2.4783623 -4.43954,5.9491177 -4.43954,9.7429267 h 10.36747 c 0,-1.462008 0.50667,-2.202598 1.00939,-2.621659 0.56889,-0.473356 1.71952,-1.009487 3.79361,-1.009487 z M 207.25754,15.312972 c 0,3.820403 1.50026,7.28621 4.47706,9.751222 2.90965,2.409504 6.74079,3.463068 10.69341,3.463068 v -9.583145 c -2.02471,0 -3.18718,-0.529977 -3.77583,-1.017868 -0.52247,-0.432381 -1.02717,-1.178001 -1.02717,-2.613277 z m 15.17047,13.21429 h 21.72259 v -9.583145 h -21.72259 z m 16.53936,-4.791618 v 71.087752 h 10.36647 V 23.735644 Z m 0,71.087752 c 0,4.220649 1.30469,8.184754 4.35558,11.114464 3.07656,2.95345 7.30375,4.25626 11.83513,4.25626 v -9.58342 c -2.39408,0 -3.67114,-0.651861 -4.36644,-1.319239 -0.721,-0.692949 -1.4578,-2.01857 -1.4578,-4.468065 z M 360.41699,65.849279 v -4.791618 h -5.18324 v 4.791618 z m 0,-16.104289 h -5.18324 v 4.791618 h 5.18324 z m 0,-26.009346 v -4.791527 h -5.18324 v 4.791527 z m -11.00648,86.458476 c 4.5304,0 8.75758,-1.30281 11.83414,-4.25626 3.05188,-2.92971 4.35658,-6.893815 4.35658,-11.114464 h -10.36748 c 0,2.449495 -0.73679,3.775116 -1.45778,4.468065 -0.69532,0.667378 -1.97236,1.319239 -4.36546,1.319239 z M 365.60123,94.823396 V 65.849279 h -10.36748 v 28.974117 z m -5.18424,-24.182499 h 34.6254 v -9.583236 h -34.6254 z m 34.6254,0 c 3.84002,0 7.56153,-1.019967 10.37438,-3.416324 2.86422,-2.441001 4.21238,-5.824276 4.21238,-9.461081 h -10.36747 c 0,1.416743 -0.47408,2.076361 -0.87211,2.414798 -0.44938,0.383264 -1.42914,0.879371 -3.34718,0.879371 z m 14.58676,-12.877405 c 0,-3.64977 -1.39952,-7.010312 -4.26176,-9.421003 -2.80594,-2.362759 -6.50769,-3.389026 -10.325,-3.389026 v 9.583145 c 1.86767,0 2.86718,0.489807 3.34224,0.889687 0.41778,0.351949 0.87705,1.000704 0.87705,2.337197 z M 395.04239,44.953463 h -34.6254 v 9.583145 h 34.6254 z M 365.60123,49.74499 V 23.735644 H 355.23375 V 49.74499 Z m -5.18424,-21.217728 h 38.19678 v -9.583145 h -38.19678 z m 38.19678,0 c 3.95262,0 7.78376,-1.053564 10.6934,-3.463068 2.9768,-2.465012 4.47706,-5.930819 4.47706,-9.751222 h -10.36746 c 0,1.435276 -0.5047,2.180896 -1.02717,2.613277 -0.58865,0.487891 -1.75113,1.017868 -3.77583,1.017868 z m 15.17046,-13.21429 c 0,-3.793809 -1.46174,-7.2645644 -4.43952,-9.7429267 -2.91164,-2.4240627 -6.75462,-3.4714007 -10.73094,-3.4714007 v 9.5831814 c 2.07409,0 3.22471,0.536131 3.7936,1.009487 0.50371,0.419061 1.0094,1.159651 1.0094,2.621659 z M 398.61377,2.0986446 h -49.20326 v 9.5831814 h 49.20326 z m -49.20326,0 c -4.53139,0 -8.75857,1.3024211 -11.83513,4.2561719 -3.05089,2.9296029 -4.35559,6.8932875 -4.35559,11.1143105 h 10.36649 c 0,-2.449675 0.73679,-3.775468 1.45778,-4.467634 0.69532,-0.668009 1.97236,-1.319667 4.36645,-1.319667 z M 333.21979,17.469127 v 77.354269 h 10.36649 V 17.469127 Z m 0,77.354269 c 0,4.220649 1.3047,8.184754 4.35559,11.114464 3.07656,2.95345 7.30374,4.25626 11.83513,4.25626 v -9.58342 c -2.39409,0 -3.67113,-0.651861 -4.36645,-1.319239 -0.72099,-0.692949 -1.45778,-2.01857 -1.45778,-4.468065 z M 467.79049,110.531 c 16.76455,0 30.9029,-5.22035 40.82395,-15.019049 9.88648,-9.763452 15.09442,-23.583039 15.09442,-39.972083 h -10.36748 c 0,14.539189 -4.59558,25.819267 -12.29537,33.423463 -7.66425,7.569144 -18.89297,11.984249 -33.25552,11.984249 z m 55.91837,-54.991132 c 0,-16.419902 -5.20596,-30.270987 -15.08849,-40.059733 C 498.69933,5.6545979 484.55998,0.414101 467.79049,0.414101 v 9.5831815 c 14.35663,0 25.58436,4.4288325 33.25058,12.0214345 7.70276,7.629487 12.30031,18.945352 12.30031,33.521151 z M 467.79049,0.414101 c -16.80306,0 -30.94439,5.2389923 -40.85753,15.06786 -9.87562,9.790846 -15.06083,23.642661 -15.06083,40.057907 h 10.36747 c 0,-14.580455 4.58274,-25.895682 12.27562,-33.522977 7.65437,-7.589316 18.88012,-12.0196085 33.27527,-12.0196085 z m -55.91836,55.125767 c 0,16.384387 5.18718,30.204706 15.06577,39.97026 9.91413,9.802342 24.05545,15.020872 40.85259,15.020872 v -9.58342 c -14.40108,0 -25.62781,-4.416938 -33.28021,-11.982514 C 426.82036,81.36306 422.2396,70.083713 422.2396,55.539868 Z m 55.91836,28.427614 c -7.10424,0 -12.65292,-2.583697 -16.54825,-7.152734 -3.99607,-4.687631 -6.55115,-11.843926 -6.55115,-21.27488 h -10.36747 c 0,10.91836 2.94916,20.37159 8.77536,27.206247 5.92794,6.95325 14.52059,10.804512 24.69151,10.804512 z m -23.0994,-28.427614 c 0,-9.460898 2.57088,-16.655173 6.58276,-21.372202 3.91212,-4.600625 9.46376,-7.190166 16.51664,-7.190166 v -9.583236 c -10.15018,0 -18.73888,3.879106 -24.6678,10.851256 -5.83017,6.855929 -8.79907,16.338557 -8.79907,27.294348 z M 467.79049,26.9775 c 7.05091,0 12.58181,2.587532 16.47516,7.18341 3.99509,4.715477 6.55214,11.911121 6.55214,21.378958 h 10.36648 c 0,-10.948853 -2.94718,-20.430203 -8.75659,-27.2875 -5.91016,-6.976989 -14.48502,-10.858104 -24.63719,-10.858104 z m 23.0273,28.562368 c 0,9.430771 -2.55508,16.589166 -6.54523,21.278258 -3.8894,4.570863 -9.42128,7.149356 -16.48207,7.149356 v 9.583145 c 10.14229,0 18.71616,-3.856465 24.63126,-10.80789 5.81436,-6.833196 8.76252,-16.284327 8.76252,-27.202869 z M 576.84103,110.531 c 14.44454,0 26.77152,-3.91663 35.55577,-11.174719 8.83562,-7.301459 13.65638,-17.638076 13.65638,-29.598862 h -10.36746 c 0,9.466558 -3.74422,17.120878 -10.19859,22.453886 -6.50572,5.375646 -16.19368,8.736275 -28.6461,8.736275 z M 626.05318,69.757419 V 16.188873 h -10.36746 v 53.568546 z m 0,-53.568546 c 0,-4.242642 -1.29778,-8.2229611 -4.34866,-11.1652561 -3.07854,-2.9695525 -7.31066,-4.27260353 -11.84206,-4.27260353 V 10.334195 c 2.3931,0 3.66422,0.651019 4.35756,1.320078 0.72198,0.696311 1.4657,2.039149 1.4657,4.5346 z M 609.86246,0.75101337 c -4.53236,0 -8.76449,1.30305103 -11.84303,4.27260353 -3.05088,2.942295 -4.34768,6.9226141 -4.34768,11.1652561 h 10.36649 c 0,-2.495451 0.7437,-3.838289 1.46568,-4.5346 0.69433,-0.669059 1.96446,-1.320078 4.35854,-1.320078 z M 593.67175,16.188873 v 51.547053 h 10.36649 V 16.188873 Z m 0,51.547053 c 0,5.303336 -1.67606,9.158068 -4.2825,11.66115 -2.57778,2.475512 -6.62324,4.166054 -12.54822,4.166054 v 9.583235 c 8.14326,0 15.10528,-2.38604 20.01692,-7.103525 4.88398,-4.689913 7.18029,-11.144593 7.18029,-18.306914 z M 576.84103,83.56313 c -5.96941,0 -10.03265,-1.694742 -12.61637,-4.170254 -2.61138,-2.501804 -4.28744,-6.353796 -4.28744,-11.65695 h -10.36747 c 0,7.162503 2.2973,13.619922 7.19412,18.311114 4.92447,4.717577 11.90427,7.099325 20.07716,7.099325 z M 559.93722,67.735926 V 16.188873 h -10.36747 v 51.547053 z m 0,-51.547053 c 0,-4.242642 -1.29679,-8.2229611 -4.34768,-11.1652561 -3.07853,-2.9695525 -7.31065,-4.27260353 -11.84303,-4.27260353 V 10.334195 c 2.39408,0 3.66422,0.651019 4.35854,1.320078 0.72198,0.696311 1.4647,2.039149 1.4647,4.5346 z M 543.74651,0.75101337 c -4.53138,0 -8.76351,1.30305103 -11.84304,4.27260353 -3.04989,2.942295 -4.34767,6.9226141 -4.34767,11.1652561 h 10.36747 c 0,-2.495451 0.7437,-3.838289 1.46568,-4.5346 0.69334,-0.669059 1.96446,-1.320078 4.35756,-1.320078 z M 527.5558,16.188873 v 53.568546 h 10.36747 V 16.188873 Z m 0,53.568546 c 0,11.961151 4.82076,22.298864 13.66823,29.600685 8.79412,7.258096 21.13889,11.172896 35.617,11.172896 v -9.58342 c -12.49291,0 -22.19865,-3.362462 -28.71228,-8.738193 -6.46126,-5.332552 -10.20548,-12.985774 -10.20548,-22.451968 z M 659.50326,40.446326 v -4.791618 h -5.18324 v 4.791618 z m 0.65582,0 4.21928,-2.78382 -1.55063,-2.007798 h -2.66865 z m 45.63188,59.093458 -4.21929,2.784546 0.005,0.007 0.005,0.007 z m 0.72888,-29.310726 v 4.791617 h 5.18424 v -4.791617 z m -0.58272,0 -4.21532,2.788476 1.55062,2.003141 h 2.6647 z m -45.48668,-58.756868 4.21632,-2.7884301 -0.0148,-0.018634 -0.0148,-0.018506 z m -11.44403,98.72193 c 4.34965,0 8.45043,-1.25259 11.44599,-4.13301 2.9699,-2.85576 4.2341,-6.719442 4.2341,-10.833361 h -10.36648 c 0,2.35463 -0.7042,3.578921 -1.34222,4.192436 -0.61334,0.589775 -1.76002,1.190515 -3.97139,1.190515 z M 664.6865,95.227749 V 40.446326 h -10.36648 v 54.781423 z m -5.18324,-49.989806 h 0.65582 v -9.583235 h -0.65582 z m -3.56348,-2.007797 45.63189,59.094184 8.43857,-5.568187 -45.63188,-59.093637 z m 45.64176,59.106974 c 1.89336,2.43397 3.97138,4.50092 6.60646,5.90325 2.722,1.44887 5.5872,1.95375 8.61043,1.95375 v -9.58342 c -1.71458,0 -2.67656,-0.27024 -3.43607,-0.674683 -0.84544,-0.450095 -1.90125,-1.313766 -3.362,-3.192654 z m 15.21689,7.857 c 4.40496,0 8.57882,-1.15035 11.64748,-3.97233 3.07162,-2.82563 4.32398,-6.672871 4.32398,-10.724529 H 722.4034 c 0,2.281411 -0.67951,3.387926 -1.27013,3.931142 -0.59457,0.546872 -1.81532,1.182297 -4.33484,1.182297 z M 732.76989,95.497261 V 15.784611 H 722.4034 v 79.71265 z m 0,-79.71265 c 0,-4.112206 -1.2247,-7.9961526 -4.18966,-10.8752959 -2.99755,-2.9121834 -7.11708,-4.15830173 -11.49044,-4.15830173 V 10.334195 c 2.26076,0 3.38965,0.606876 3.98126,1.181699 0.62518,0.607864 1.33235,1.844925 1.33235,4.268717 z M 717.08979,0.75101337 c -4.37139,0 -8.49685,1.24419203 -11.50921,4.14082903 -2.98668,2.8716828 -4.24398,6.7573546 -4.24398,10.8927686 h 10.36748 c 0,-2.400584 0.71012,-3.635921 1.35013,-4.251252 0.61432,-0.59036 1.77285,-1.199164 4.03558,-1.199164 z M 701.3366,15.784611 v 54.444447 h 10.36748 V 15.784611 Z m 5.18324,49.652828 h -0.58272 v 9.583236 h 0.58272 z m 3.63262,2.003233 -45.4857,-58.7569121 -8.43166,5.5768341 45.4867,58.75694 z M 664.63712,8.6466204 c -1.90223,-2.4087459 -3.99904,-4.4528252 -6.5867,-5.8606027 -2.67755,-1.456466 -5.51411,-2.03500433 -8.53339,-2.03500433 V 10.334195 c 1.49927,0 2.45335,0.263729 3.27509,0.710791 0.91062,0.495759 2.02174,1.416478 3.4726,3.252766 z M 649.51703,0.75101337 c -4.47608,0 -8.70128,1.20037863 -11.81242,4.04867353 -3.11804,2.8550583 -4.45138,6.7553371 -4.45138,10.9175471 h 10.36747 c 0,-2.306412 0.70717,-3.493452 1.37976,-4.108563 0.67852,-0.62186 1.99409,-1.274476 4.51657,-1.274476 z M 633.25323,15.717234 V 95.227749 H 643.6207 V 15.717234 Z m 0,79.510515 c 0,4.113919 1.2652,7.983071 4.25286,10.842491 3.0104,2.88041 7.12992,4.12388 11.50032,4.12388 v -9.58342 c -2.26273,0 -3.42817,-0.60896 -4.04447,-1.198733 -0.63901,-0.611683 -1.34124,-1.829588 -1.34124,-4.184218 z m 133.91489,-7.951124 h -5.18324 v 4.791617 h 5.18324 z m 0,-63.608359 V 18.87674 h -5.18324 v 4.791526 z m -11.00649,85.244964 h 29.15771 v -9.58251 h -29.15771 z m 29.15771,0 c 16.87714,0 30.89895,-4.87251 40.67581,-14.417225 9.7403,-9.509833 14.65885,-23.064478 14.65885,-39.360399 h -10.36747 c 0,14.564752 -4.37534,25.503471 -11.81934,32.771696 -7.40843,7.233167 -18.46233,11.423418 -33.14785,11.423418 z M 840.654,55.135606 c 0,-16.298477 -4.92151,-29.693078 -14.69836,-39.028444 C 816.15607,6.7510992 802.13426,2.0986446 785.31934,2.0986446 v 9.5831814 c 14.74774,0 25.80164,4.03979 33.18737,11.091185 7.40745,7.07212 11.77982,17.800126 11.77982,32.362595 z M 785.31934,2.0986446 h -29.15771 v 9.5831814 h 29.15771 z m -29.15771,0 c -4.53139,0 -8.75857,1.3024211 -11.83513,4.2561719 -3.05088,2.9296029 -4.35558,6.8932875 -4.35558,11.1143105 h 10.36648 c 0,-2.449675 0.7368,-3.775468 1.45778,-4.467634 0.69532,-0.668009 1.97236,-1.319667 4.36645,-1.319667 z M 739.97092,17.469127 V 93.475764 H 750.3374 V 17.469127 Z m 0,76.006637 c 0,4.24265 1.2968,8.223186 4.34768,11.165686 3.07854,2.96897 7.31066,4.27178 11.84303,4.27178 v -9.58251 c -2.39409,0 -3.66421,-0.650951 -4.35855,-1.320152 -0.72198,-0.696595 -1.46568,-2.039302 -1.46568,-4.534804 z m 32.38143,-6.199139 V 23.668266 h -10.36747 v 63.608359 z m -5.18423,-58.81674 h 15.52701 V 18.87674 h -15.52701 z m 15.52701,0 c 8.58079,0 14.61045,2.44018 18.56603,6.535842 4.03658,4.179291 6.57387,10.765895 6.57387,20.207257 h 10.36748 c 0,-10.907953 -2.9294,-20.088662 -9.20698,-26.589356 -6.35954,-6.584412 -15.49243,-9.736888 -26.3004,-9.736888 z m 25.1399,26.743099 c 0,9.844162 -2.49878,16.554655 -6.49287,20.75887 -3.89336,4.098676 -9.8855,6.523244 -18.64703,6.523244 v 9.583144 c 10.91957,0 20.08901,-3.100711 26.43769,-9.783085 6.24794,-6.577016 9.06969,-15.903345 9.06969,-27.082173 z m -25.1399,27.282114 h -15.52701 v 9.583144 h 15.52701 z"
     fill="#000000"
     id="path4"
     style="stroke-width:0.949579" />
</svg>
